<svg id="SvgjsSvg1006" width="1104.578125" height="377.375" xmlns="http://www.w3.org/2000/svg" version="1.1" xmlns:xlink="http://www.w3.org/1999/xlink" xmlns:svgjs="http://svgjs.com/svgjs"><defs id="SvgjsDefs1007"></defs><g id="SvgjsG1008" transform="translate(231.51429208510945,25.00346186172925)"><path id="SvgjsPath1009" d="M 0 4Q 0 0 4 0L 201 0Q 205 0 205 4L 205 138.0605975279101Q 205 142.0605975279101 201 142.0605975279101L 4 142.0605975279101Q 0 142.0605975279101 0 138.0605975279101Z" stroke="#323232" stroke-width="2" fill-opacity="1" fill="#ffffff"></path><g id="SvgjsG1010"><text id="SvgjsText1011" font-family="微软雅黑" text-anchor="middle" font-size="16px" width="105" fill="#323232" font-weight="400" align="middle" anchor="middle" family="微软雅黑" size="16px" weight="400" font-style="" y="-1.2528144622921373" transform="rotate(0)"><tspan id="SvgjsTspan1012" dy="20" x="102.5"><tspan id="SvgjsTspan1013" style="text-decoration:;">NIMA network</tspan></tspan></text></g></g><g id="SvgjsG1014" transform="translate(260.9411764705884,52.824771036397436)"><path id="SvgjsPath1015" d="M 0 0L 160 0L 160 70L 0 70Z" stroke="#323232" stroke-width="2" fill-opacity="1" fill="#ffffff"></path><g id="SvgjsG1016"><text id="SvgjsText1017" font-family="微软雅黑" text-anchor="middle" font-size="16px" width="0" fill="#323232" font-weight="400" align="middle" anchor="middle" family="微软雅黑" size="16px" weight="400" font-style="" y="22.6" transform="rotate(0)"></text></g></g><g id="SvgjsG1018" transform="translate(254.9411764705884,60.824771036397436)"><path id="SvgjsPath1019" d="M 0 0L 160 0L 160 70L 0 70Z" stroke="#323232" stroke-width="2" fill-opacity="1" fill="#ffffff"></path><g id="SvgjsG1020"><text id="SvgjsText1021" font-family="微软雅黑" text-anchor="middle" font-size="16px" width="0" fill="#323232" font-weight="400" align="middle" anchor="middle" family="微软雅黑" size="16px" weight="400" font-style="" y="22.6" transform="rotate(0)"></text></g></g><g id="SvgjsG1022" transform="translate(248.3400422550875,69.30303190596265)"><path id="SvgjsPath1023" d="M 0 0L 160 0L 160 70L 0 70Z" stroke="#323232" stroke-width="2" fill-opacity="1" fill="#ffffff"></path><g id="SvgjsG1024"><text id="SvgjsText1025" font-family="微软雅黑" text-anchor="middle" font-size="16px" width="139" fill="#323232" font-weight="400" align="middle" anchor="middle" family="微软雅黑" size="16px" weight="400" font-style="" y="22.6" transform="rotate(0)"><tspan id="SvgjsTspan1026" dy="20" x="80"><tspan id="SvgjsTspan1027" style="text-decoration:;">InceptionResnetV2</tspan></tspan></text></g></g><g id="SvgjsG1028" transform="translate(515.3961189205027,60.824771036397436)"><path id="SvgjsPath1029" d="M 0 0L 100 0L 100 70L 0 70Z" stroke="#323232" stroke-width="2" fill-opacity="1" fill="#ffffff"></path><g id="SvgjsG1030"><text id="SvgjsText1031" font-family="微软雅黑" text-anchor="middle" font-size="16px" width="60" fill="#323232" font-weight="400" align="middle" anchor="middle" family="微软雅黑" size="16px" weight="400" font-style="" y="12.6" transform="rotate(0)"><tspan id="SvgjsTspan1032" dy="20" x="50"><tspan id="SvgjsTspan1033" style="text-decoration:;">Lambda</tspan></tspan><tspan id="SvgjsTspan1034" dy="20" x="50"><tspan id="SvgjsTspan1035" style="text-decoration:;">(Mean)</tspan></tspan></text></g></g><g id="SvgjsG1036" transform="translate(442.52012383900933,86.88197927438367)"><path id="SvgjsPath1037" d="M 0 5.9022425629290876L 53.16247139588094 5.9022425629290876L 53.16247139588094 0L 62.10526315789471 8.94279176201377L 53.16247139588094 17.88558352402754L 53.16247139588094 11.98334096109845L 0 11.98334096109845L 0 5.9022425629290876Z" stroke="#323232" stroke-width="2" fill-opacity="1" fill="#ffffff"></path><g id="SvgjsG1038"><text id="SvgjsText1039" font-family="微软雅黑" text-anchor="middle" font-size="13px" width="0" fill="#323232" font-weight="400" align="middle" anchor="middle" family="微软雅黑" size="13px" weight="400" font-style="" y="-1.0072082379862308" transform="rotate(0)"></text></g></g><g id="SvgjsG1040" transform="translate(326.6944480481207,167.5625201778476)"><path id="SvgjsPath1041" d="M 10 0L 20 10L 13.4 10L 13.4 32.8173286854759L 20 32.8173286854759L 10 42.8173286854759L 0 32.8173286854759L 6.6000000000000005 32.8173286854759L 6.6000000000000005 10L 0 10L 10 0Z" stroke="#323232" stroke-width="2" fill-opacity="1" fill="#ffffff"></path><g id="SvgjsG1042"><text id="SvgjsText1043" font-family="微软雅黑" text-anchor="middle" font-size="13px" width="0" fill="#323232" font-weight="400" align="middle" anchor="middle" family="微软雅黑" size="13px" weight="400" font-style="" y="11.45866434273795" transform="rotate(0)"></text></g></g><g id="SvgjsG1044" transform="translate(346.69444804812053,171.31286391224154)"><path id="SvgjsPath1045" d="M 0 0L 114.30555195187947 0L 114.30555195187947 29.543119535393657L 0 29.543119535393657Z" stroke="none" fill="none"></path><g id="SvgjsG1046"><text id="SvgjsText1047" font-family="微软雅黑" text-anchor="middle" font-size="16px" width="108" fill="#323232" font-weight="400" align="middle" anchor="middle" family="微软雅黑" size="16px" weight="400" font-style="" y="2.3715597676968287" transform="rotate(0)"><tspan id="SvgjsTspan1048" dy="20" x="57.5"><tspan id="SvgjsTspan1049" style="text-decoration:;">Share Weights</tspan></tspan></text></g></g><g id="SvgjsG1050" transform="translate(679.0409063624373,153.6346331954559)"><path id="SvgjsPath1051" d="M 0 0L 100 0L 100 70L 0 70Z" stroke="#323232" stroke-width="2" fill-opacity="1" fill="#ffffff"></path><g id="SvgjsG1052"><text id="SvgjsText1053" font-family="微软雅黑" text-anchor="middle" font-size="16px" width="65" fill="#323232" font-weight="400" align="middle" anchor="middle" family="微软雅黑" size="16px" weight="400" font-style="" y="12.6" transform="rotate(0)"><tspan id="SvgjsTspan1054" dy="20" x="50"><tspan id="SvgjsTspan1055" style="text-decoration:;">Distance</tspan></tspan><tspan id="SvgjsTspan1056" dy="20" x="50"><tspan id="SvgjsTspan1057" style="text-decoration:;">(L2)</tspan></tspan></text></g></g><g id="SvgjsG1058" transform="translate(794.9008472852266,179.69184143344216)"><path id="SvgjsPath1059" d="M 0 5.9022425629290876L 104.097537423348 5.9022425629290876L 104.097537423348 0L 113.04032918536177 8.94279176201377L 104.097537423348 17.88558352402754L 104.097537423348 11.98334096109845L 0 11.98334096109845L 0 5.9022425629290876Z" stroke="#323232" stroke-width="2" fill-opacity="1" fill="#ffffff"></path><g id="SvgjsG1060"><text id="SvgjsText1061" font-family="微软雅黑" text-anchor="middle" font-size="13px" width="0" fill="#323232" font-weight="400" align="middle" anchor="middle" family="微软雅黑" size="13px" weight="400" font-style="" y="-1.0072082379862308" transform="rotate(0)"></text></g></g><g id="SvgjsG1062" transform="matrix(0.6427876096865394,0.766044443118978,-0.766044443118978,0.6427876096865394,631.1161609614921,114.98362347180029)"><path id="SvgjsPath1063" d="M 0 6.6000000000000005L 57.520605070038755 6.6000000000000005L 57.520605070038755 0L 67.52060507003876 10L 57.520605070038755 20L 57.520605070038755 13.4L 0 13.4L 0 6.6000000000000005Z" stroke="#323232" stroke-width="2" fill-opacity="1" fill="#ffffff"></path><g id="SvgjsG1064"><text id="SvgjsText1065" font-family="微软雅黑" text-anchor="middle" font-size="13px" width="0" fill="#323232" font-weight="400" align="middle" anchor="middle" family="微软雅黑" size="13px" weight="400" font-style="" y="0.05000000000000093" transform="rotate(0)"></text></g></g><g id="SvgjsG1066" transform="translate(785.0409063624373,147.98859823861886)"><path id="SvgjsPath1067" d="M 0 0L 128 0L 128 34.424126084584316L 0 34.424126084584316Z" stroke="none" fill="none"></path><g id="SvgjsG1068"><text id="SvgjsText1069" font-family="微软雅黑" text-anchor="middle" font-size="16px" width="125" fill="#323232" font-weight="400" align="middle" anchor="middle" family="微软雅黑" size="16px" weight="400" font-style="" y="4.8120630422921575" transform="rotate(0)"><tspan id="SvgjsTspan1070" dy="20" x="64"><tspan id="SvgjsTspan1071" style="text-decoration:;">Contrastive Loss</tspan></tspan></text></g></g><g id="SvgjsG1072" transform="translate(25.004406815037576,161.78899849655323)"><path id="SvgjsPath1073" d="M 16.666666666666668 0L 113.33333333333333 0C 135.55555555555554 0 135.55555555555554 50 113.33333333333333 50L 16.666666666666668 50C -5.555555555555556 50 -5.555555555555556 0 16.666666666666668 0Z" stroke="#323232" stroke-width="2" fill-opacity="1" fill="#ffffff"></path><g id="SvgjsG1074"><text id="SvgjsText1075" font-family="微软雅黑" text-anchor="middle" font-size="16px" width="108" fill="#323232" font-weight="400" align="middle" anchor="middle" family="微软雅黑" size="16px" weight="400" font-style="" y="2.6" transform="rotate(0)"><tspan id="SvgjsTspan1076" dy="20" x="65"><tspan id="SvgjsTspan1077" style="text-decoration:;">Inputs</tspan></tspan><tspan id="SvgjsTspan1078" dy="20" x="65"><tspan id="SvgjsTspan1079" style="text-decoration:;">(Sample Pairs)</tspan></tspan></text></g></g><g id="SvgjsG1080" transform="matrix(0.6427876096865394,0.766044443118978,-0.766044443118978,0.6427876096865394,172.0049995516854,192.11055114324319)"><path id="SvgjsPath1081" d="M 0 6.6000000000000005L 81.76149688051163 6.6000000000000005L 81.76149688051163 0L 91.76149688051163 10L 81.76149688051163 20L 81.76149688051163 13.4L 0 13.4L 0 6.6000000000000005Z" stroke="#323232" stroke-width="2" fill-opacity="1" fill="#ffffff"></path><g id="SvgjsG1082"><text id="SvgjsText1083" font-family="微软雅黑" text-anchor="middle" font-size="13px" width="0" fill="#323232" font-weight="400" align="middle" anchor="middle" family="微软雅黑" size="13px" weight="400" font-style="" y="0.05000000000000093" transform="rotate(0)"></text></g></g><g id="SvgjsG1084" transform="matrix(0.6427876096865393,-0.7660444431189781,0.7660444431189781,0.6427876096865393,156.68411068930584,176.87991858685416)"><path id="SvgjsPath1085" d="M 0 6.6000000000000005L 81.76149688051163 6.6000000000000005L 81.76149688051163 0L 91.76149688051163 10L 81.76149688051163 20L 81.76149688051163 13.4L 0 13.4L 0 6.6000000000000005Z" stroke="#323232" stroke-width="2" fill-opacity="1" fill="#ffffff"></path><g id="SvgjsG1086"><text id="SvgjsText1087" font-family="微软雅黑" text-anchor="middle" font-size="13px" width="0" fill="#323232" font-weight="400" align="middle" anchor="middle" family="微软雅黑" size="13px" weight="400" font-style="" y="0.05000000000000093" transform="rotate(0)"></text></g></g><g id="SvgjsG1088" transform="translate(919.59021383848,161.78899849655323)"><path id="SvgjsPath1089" d="M 16.196950122256748 0L 143.80304987774326 0C 165.3989833740856 0 165.3989833740856 48.59085036677024 143.80304987774326 48.59085036677024L 16.196950122256748 48.59085036677024C -5.398983374085582 48.59085036677024 -5.398983374085582 0 16.196950122256748 0Z" stroke="#323232" stroke-width="2" fill-opacity="1" fill="#ffffff"></path><g id="SvgjsG1090"><text id="SvgjsText1091" font-family="微软雅黑" text-anchor="middle" font-size="16px" width="139" fill="#323232" font-weight="400" align="middle" anchor="middle" family="微软雅黑" size="16px" weight="400" font-style="" y="1.8954251833851203" transform="rotate(0)"><tspan id="SvgjsTspan1092" dy="20" x="80"><tspan id="SvgjsTspan1093" style="text-decoration:;">Outputs</tspan></tspan><tspan id="SvgjsTspan1094" dy="20" x="80"><tspan id="SvgjsTspan1095" style="text-decoration:;">(Distance of Pairs)</tspan></tspan></text></g></g><g id="SvgjsG1096" transform="translate(232.4411764705884,210.37984886332345)"><path id="SvgjsPath1097" d="M 0 4Q 0 0 4 0L 201 0Q 205 0 205 4L 205 138.0605975279101Q 205 142.0605975279101 201 142.0605975279101L 4 142.0605975279101Q 0 142.0605975279101 0 138.0605975279101Z" stroke="#323232" stroke-width="2" fill-opacity="1" fill="#ffffff"></path><g id="SvgjsG1098"><text id="SvgjsText1099" font-family="微软雅黑" text-anchor="middle" font-size="16px" width="105" fill="#323232" font-weight="400" align="middle" anchor="middle" family="微软雅黑" size="16px" weight="400" font-style="" y="-1.2528144622921373" transform="rotate(0)"><tspan id="SvgjsTspan1100" dy="20" x="102.5"><tspan id="SvgjsTspan1101" style="text-decoration:;">NIMA network</tspan></tspan></text></g></g><g id="SvgjsG1102" transform="translate(261.86806085606736,238.2011580379916)"><path id="SvgjsPath1103" d="M 0 0L 160 0L 160 70L 0 70Z" stroke="#323232" stroke-width="2" fill-opacity="1" fill="#ffffff"></path><g id="SvgjsG1104"><text id="SvgjsText1105" font-family="微软雅黑" text-anchor="middle" font-size="16px" width="0" fill="#323232" font-weight="400" align="middle" anchor="middle" family="微软雅黑" size="16px" weight="400" font-style="" y="22.6" transform="rotate(0)"></text></g></g><g id="SvgjsG1106" transform="translate(255.86806085606736,246.2011580379916)"><path id="SvgjsPath1107" d="M 0 0L 160 0L 160 70L 0 70Z" stroke="#323232" stroke-width="2" fill-opacity="1" fill="#ffffff"></path><g id="SvgjsG1108"><text id="SvgjsText1109" font-family="微软雅黑" text-anchor="middle" font-size="16px" width="0" fill="#323232" font-weight="400" align="middle" anchor="middle" family="微软雅黑" size="16px" weight="400" font-style="" y="22.6" transform="rotate(0)"></text></g></g><g id="SvgjsG1110" transform="translate(249.26692664056645,254.67941890755685)"><path id="SvgjsPath1111" d="M 0 0L 160 0L 160 70L 0 70Z" stroke="#323232" stroke-width="2" fill-opacity="1" fill="#ffffff"></path><g id="SvgjsG1112"><text id="SvgjsText1113" font-family="微软雅黑" text-anchor="middle" font-size="16px" width="139" fill="#323232" font-weight="400" align="middle" anchor="middle" family="微软雅黑" size="16px" weight="400" font-style="" y="22.6" transform="rotate(0)"><tspan id="SvgjsTspan1114" dy="20" x="80"><tspan id="SvgjsTspan1115" style="text-decoration:;">InceptionResnetV2</tspan></tspan></text></g></g><g id="SvgjsG1116" transform="translate(515.3961189205027,246.2011580379916)"><path id="SvgjsPath1117" d="M 0 0L 100 0L 100 70L 0 70Z" stroke="#323232" stroke-width="2" fill-opacity="1" fill="#ffffff"></path><g id="SvgjsG1118"><text id="SvgjsText1119" font-family="微软雅黑" text-anchor="middle" font-size="16px" width="60" fill="#323232" font-weight="400" align="middle" anchor="middle" family="微软雅黑" size="16px" weight="400" font-style="" y="12.6" transform="rotate(0)"><tspan id="SvgjsTspan1120" dy="20" x="50"><tspan id="SvgjsTspan1121" style="text-decoration:;">Lambda</tspan></tspan><tspan id="SvgjsTspan1122" dy="20" x="50"><tspan id="SvgjsTspan1123" style="text-decoration:;">(Mean)</tspan></tspan></text></g></g><g id="SvgjsG1124" transform="translate(442.52012383900933,272.2583662759778)"><path id="SvgjsPath1125" d="M 0 5.9022425629290876L 53.16247139588094 5.9022425629290876L 53.16247139588094 0L 62.10526315789471 8.94279176201377L 53.16247139588094 17.88558352402754L 53.16247139588094 11.98334096109845L 0 11.98334096109845L 0 5.9022425629290876Z" stroke="#323232" stroke-width="2" fill-opacity="1" fill="#ffffff"></path><g id="SvgjsG1126"><text id="SvgjsText1127" font-family="微软雅黑" text-anchor="middle" font-size="13px" width="0" fill="#323232" font-weight="400" align="middle" anchor="middle" family="微软雅黑" size="13px" weight="400" font-style="" y="-1.0072082379862308" transform="rotate(0)"></text></g></g><g id="SvgjsG1128" transform="matrix(0.6427876096865393,-0.7660444431189781,0.7660444431189781,0.6427876096865393,615.7952720991126,253.119135687008)"><path id="SvgjsPath1129" d="M 0 6.6000000000000005L 57.520605070038755 6.6000000000000005L 57.520605070038755 0L 67.52060507003876 10L 57.520605070038755 20L 57.520605070038755 13.4L 0 13.4L 0 6.6000000000000005Z" stroke="#323232" stroke-width="2" fill-opacity="1" fill="#ffffff"></path><g id="SvgjsG1130"><text id="SvgjsText1131" font-family="微软雅黑" text-anchor="middle" font-size="13px" width="0" fill="#323232" font-weight="400" align="middle" anchor="middle" family="微软雅黑" size="13px" weight="400" font-style="" y="0.05000000000000093" transform="rotate(0)"></text></g></g></svg>